v -0.333023 0.274773 0.090000
v -0.351304 0.095425 0.090000
v 0.251186 0.000000 0.090000
v 0.251186 0.000000 -0.090000
v -0.351304 0.095425 -0.090000
v -0.333023 0.274773 -0.090000
v -0.333023 0.274773 0.090000
v 0.251186 0.000000 0.090000
v 0.307502 0.355568 0.090000
v 0.307502 0.355568 -0.090000
v 0.251186 0.000000 -0.090000
v -0.333023 0.274773 -0.090000
v -0.333023 0.274773 0.090000
v 0.307502 0.355568 0.090000
v 0.227996 0.428908 0.090000
v 0.227996 0.428908 -0.090000
v 0.307502 0.355568 -0.090000
v -0.333023 0.274773 -0.090000
v -0.333023 0.274773 0.090000
v 0.227996 0.428908 0.090000
v 0.327839 0.483967 0.090000
v 0.327839 0.483967 -0.090000
v 0.227996 0.428908 -0.090000
v -0.333023 0.274773 -0.090000
v -0.333023 0.274773 0.090000
v 0.327839 0.483967 0.090000
v 0.351304 0.632121 0.090000
v 0.351304 0.632121 -0.090000
v 0.327839 0.483967 -0.090000
v -0.333023 0.274773 -0.090000
v -0.333023 0.274773 0.090000
v 0.351304 0.632121 0.090000
v 0.337317 0.735582 0.090000
v 0.337317 0.735582 -0.090000
v 0.351304 0.632121 -0.090000
v -0.333023 0.274773 -0.090000
v -0.333023 0.274773 0.090000
v 0.337317 0.735582 0.090000
v 0.282258 0.835425 0.090000
v 0.282258 0.835425 -0.090000
v 0.337317 0.735582 -0.090000
v -0.333023 0.274773 -0.090000
v -0.333023 0.274773 0.090000
v 0.282258 0.835425 0.090000
v 0.192875 0.910330 0.090000
v 0.192875 0.910330 -0.090000
v 0.282258 0.835425 -0.090000
v -0.333023 0.274773 -0.090000
v -0.333023 0.274773 0.090000
v 0.192875 0.910330 0.090000
v 0.097235 0.945727 0.090000
v 0.097235 0.945727 -0.090000
v 0.192875 0.910330 -0.090000
v -0.333023 0.274773 -0.090000
v -0.333023 0.274773 0.090000
v 0.097235 0.945727 0.090000
v -0.004663 0.941616 0.090000
v -0.004663 0.941616 -0.090000
v 0.097235 0.945727 -0.090000
v -0.333023 0.274773 -0.090000
v -0.333023 0.274773 0.090000
v -0.004663 0.941616 0.090000
v -0.112818 0.897999 0.090000
v -0.112818 0.897999 -0.090000
v -0.004663 0.941616 -0.090000
v -0.333023 0.274773 -0.090000
v -0.333023 0.274773 0.090000
v -0.112818 0.897999 0.090000
v -0.196035 0.820057 0.090000
v -0.196035 0.820057 -0.090000
v -0.112818 0.897999 -0.090000
v -0.333023 0.274773 -0.090000
v -0.333023 0.274773 0.090000
v -0.196035 0.820057 0.090000
v -0.241309 0.725981 0.090000
v -0.241309 0.725981 -0.090000
v -0.196035 0.820057 -0.090000
v -0.333023 0.274773 -0.090000
v -0.241309 0.725981 0.090000
v -0.285601 0.510254 0.090000
v -0.333023 0.274773 0.090000
v -0.333023 0.274773 -0.090000
v -0.285601 0.510254 -0.090000
v -0.241309 0.725981 -0.090000
v -0.351304 0.095425 -0.090000
v 0.251186 0.000000 -0.090000
v 0.251186 0.000000 0.090000
v -0.351304 0.095425 -0.090000
v 0.251186 0.000000 0.090000
v -0.351304 0.095425 0.090000
v 0.251186 0.000000 -0.090000
v 0.307502 0.355568 -0.090000
v 0.307502 0.355568 0.090000
v 0.251186 0.000000 -0.090000
v 0.307502 0.355568 0.090000
v 0.251186 0.000000 0.090000
v 0.307502 0.355568 -0.090000
v 0.227996 0.428908 -0.090000
v 0.227996 0.428908 0.090000
v 0.307502 0.355568 -0.090000
v 0.227996 0.428908 0.090000
v 0.307502 0.355568 0.090000
v 0.227996 0.428908 -0.090000
v 0.327839 0.483967 -0.090000
v 0.327839 0.483967 0.090000
v 0.227996 0.428908 -0.090000
v 0.327839 0.483967 0.090000
v 0.227996 0.428908 0.090000
v 0.327839 0.483967 -0.090000
v 0.351304 0.632121 -0.090000
v 0.351304 0.632121 0.090000
v 0.327839 0.483967 -0.090000
v 0.351304 0.632121 0.090000
v 0.327839 0.483967 0.090000
v 0.351304 0.632121 -0.090000
v 0.337317 0.735582 -0.090000
v 0.337317 0.735582 0.090000
v 0.351304 0.632121 -0.090000
v 0.337317 0.735582 0.090000
v 0.351304 0.632121 0.090000
v 0.337317 0.735582 -0.090000
v 0.282258 0.835425 -0.090000
v 0.282258 0.835425 0.090000
v 0.337317 0.735582 -0.090000
v 0.282258 0.835425 0.090000
v 0.337317 0.735582 0.090000
v 0.282258 0.835425 -0.090000
v 0.192875 0.910330 -0.090000
v 0.192875 0.910330 0.090000
v 0.282258 0.835425 -0.090000
v 0.192875 0.910330 0.090000
v 0.282258 0.835425 0.090000
v 0.192875 0.910330 -0.090000
v 0.097235 0.945727 -0.090000
v 0.097235 0.945727 0.090000
v 0.192875 0.910330 -0.090000
v 0.097235 0.945727 0.090000
v 0.192875 0.910330 0.090000
v 0.097235 0.945727 -0.090000
v -0.004663 0.941616 -0.090000
v -0.004663 0.941616 0.090000
v 0.097235 0.945727 -0.090000
v -0.004663 0.941616 0.090000
v 0.097235 0.945727 0.090000
v -0.004663 0.941616 -0.090000
v -0.112818 0.897999 -0.090000
v -0.112818 0.897999 0.090000
v -0.004663 0.941616 -0.090000
v -0.112818 0.897999 0.090000
v -0.004663 0.941616 0.090000
v -0.112818 0.897999 -0.090000
v -0.196035 0.820057 -0.090000
v -0.196035 0.820057 0.090000
v -0.112818 0.897999 -0.090000
v -0.196035 0.820057 0.090000
v -0.112818 0.897999 0.090000
v -0.196035 0.820057 -0.090000
v -0.241309 0.725981 -0.090000
v -0.241309 0.725981 0.090000
v -0.196035 0.820057 -0.090000
v -0.241309 0.725981 0.090000
v -0.196035 0.820057 0.090000
v -0.241309 0.725981 -0.090000
v -0.285601 0.510254 -0.090000
v -0.285601 0.510254 0.090000
v -0.241309 0.725981 -0.090000
v -0.285601 0.510254 0.090000
v -0.241309 0.725981 0.090000
v -0.285601 0.510254 -0.090000
v -0.333023 0.274773 -0.090000
v -0.333023 0.274773 0.090000
v -0.285601 0.510254 -0.090000
v -0.333023 0.274773 0.090000
v -0.285601 0.510254 0.090000
v -0.333023 0.274773 -0.090000
v -0.351304 0.095425 -0.090000
v -0.351304 0.095425 0.090000
v -0.333023 0.274773 -0.090000
v -0.351304 0.095425 0.090000
v -0.333023 0.274773 0.090000
vt 0.000000 0.000000
vt 1.000000 0.000000
vt 0.500000 1.000000
vn 0.000000 0.000000 1.000000
vn 0.000000 0.000000 -1.000000
vn -0.000000 0.000000 1.000000
vn 0.000000 0.000000 -1.000000
vn 0.000000 0.000000 1.000000
vn 0.000000 -0.000000 -1.000000
vn 0.000000 0.000000 1.000000
vn 0.000000 0.000000 -1.000000
vn 0.000000 0.000000 1.000000
vn 0.000000 0.000000 -1.000000
vn 0.000000 0.000000 1.000000
vn 0.000000 -0.000000 -1.000000
vn 0.000000 0.000000 1.000000
vn 0.000000 -0.000000 -1.000000
vn 0.000000 0.000000 1.000000
vn 0.000000 -0.000000 -1.000000
vn 0.000000 0.000000 1.000000
vn 0.000000 -0.000000 -1.000000
vn 0.000000 0.000000 1.000000
vn 0.000000 -0.000000 -1.000000
vn 0.000000 0.000000 1.000000
vn 0.000000 -0.000000 -1.000000
vn 0.000000 0.000000 1.000000
vn 0.000000 -0.000000 -1.000000
vn 0.000000 0.000000 1.000000
vn 0.000000 -0.000000 -1.000000
vn 0.000000 0.000000 1.000000
vn 0.000000 0.000000 -1.000000
vn -0.156434 -0.987688 0.000000
vn -0.156434 -0.987688 0.000000
vn 0.987688 -0.156434 0.000000
vn 0.987688 -0.156434 0.000000
vn 0.678032 0.735032 0.000000
vn 0.678032 0.735032 -0.000000
vn 0.482900 -0.875675 0.000000
vn 0.482900 -0.875675 0.000000
vn 0.987688 -0.156434 0.000000
vn 0.987688 -0.156434 0.000000
vn 0.990985 0.133973 0.000000
vn 0.990985 0.133973 -0.000000
vn 0.875675 0.482900 0.000000
vn 0.875675 0.482900 -0.000000
vn 0.642303 0.766451 0.000000
vn 0.642303 0.766451 -0.000000
vn 0.347098 0.937829 0.000000
vn 0.347098 0.937829 -0.000000
vn -0.040305 0.999187 0.000000
vn -0.040305 0.999187 0.000000
vn -0.374020 0.927421 0.000000
vn -0.374020 0.927421 0.000000
vn -0.683593 0.729864 0.000000
vn -0.683593 0.729864 0.000000
vn -0.901083 0.433647 0.000000
vn -0.901083 0.433647 0.000000
vn -0.979566 0.201122 0.000000
vn -0.979566 0.201122 0.000000
vn -0.980320 0.197417 0.000000
vn -0.980320 0.197417 0.000000
vn -0.994845 0.101407 0.000000
vn -0.994845 0.101407 0.000000
f 1/1/1 2/2/1 3/3/1
f 4/1/2 5/2/2 6/3/2
f 7/1/3 8/2/3 9/3/3
f 10/1/4 11/2/4 12/3/4
f 13/1/5 14/2/5 15/3/5
f 16/1/6 17/2/6 18/3/6
f 19/1/7 20/2/7 21/3/7
f 22/1/8 23/2/8 24/3/8
f 25/1/9 26/2/9 27/3/9
f 28/1/10 29/2/10 30/3/10
f 31/1/11 32/2/11 33/3/11
f 34/1/12 35/2/12 36/3/12
f 37/1/13 38/2/13 39/3/13
f 40/1/14 41/2/14 42/3/14
f 43/1/15 44/2/15 45/3/15
f 46/1/16 47/2/16 48/3/16
f 49/1/17 50/2/17 51/3/17
f 52/1/18 53/2/18 54/3/18
f 55/1/19 56/2/19 57/3/19
f 58/1/20 59/2/20 60/3/20
f 61/1/21 62/2/21 63/3/21
f 64/1/22 65/2/22 66/3/22
f 67/1/23 68/2/23 69/3/23
f 70/1/24 71/2/24 72/3/24
f 73/1/25 74/2/25 75/3/25
f 76/1/26 77/2/26 78/3/26
f 79/1/27 80/2/27 81/3/27
f 82/1/28 83/2/28 84/3/28
f 85/1/29 86/2/29 87/3/29
f 88/1/30 89/2/30 90/3/30
f 91/1/31 92/2/31 93/3/31
f 94/1/32 95/2/32 96/3/32
f 97/1/33 98/2/33 99/3/33
f 100/1/34 101/2/34 102/3/34
f 103/1/35 104/2/35 105/3/35
f 106/1/36 107/2/36 108/3/36
f 109/1/37 110/2/37 111/3/37
f 112/1/38 113/2/38 114/3/38
f 115/1/39 116/2/39 117/3/39
f 118/1/40 119/2/40 120/3/40
f 121/1/41 122/2/41 123/3/41
f 124/1/42 125/2/42 126/3/42
f 127/1/43 128/2/43 129/3/43
f 130/1/44 131/2/44 132/3/44
f 133/1/45 134/2/45 135/3/45
f 136/1/46 137/2/46 138/3/46
f 139/1/47 140/2/47 141/3/47
f 142/1/48 143/2/48 144/3/48
f 145/1/49 146/2/49 147/3/49
f 148/1/50 149/2/50 150/3/50
f 151/1/51 152/2/51 153/3/51
f 154/1/52 155/2/52 156/3/52
f 157/1/53 158/2/53 159/3/53
f 160/1/54 161/2/54 162/3/54
f 163/1/55 164/2/55 165/3/55
f 166/1/56 167/2/56 168/3/56
f 169/1/57 170/2/57 171/3/57
f 172/1/58 173/2/58 174/3/58
f 175/1/59 176/2/59 177/3/59
f 178/1/60 179/2/60 180/3/60
